<svg width="282" height="282" viewBox="0 0 282 282" fill="none" xmlns="http://www.w3.org/2000/svg">
<path fill-rule="evenodd" clip-rule="evenodd" d="M111 16H171V68.1472L211.574 27.5736L254 70L213 111H266V171H213.853L254.274 211.421L211.848 253.848L171 213V266H111V213L70.1522 253.848L27.7258 211.421L68.1472 171H16V111H69L28 70L70.4264 27.5736L111 68.1472V16ZM97.6569 135.841C94.5327 138.965 94.5327 144.03 97.6569 147.154L135.841 185.338C138.965 188.462 144.03 188.462 147.154 185.338L185.338 147.154C188.462 144.03 188.462 138.965 185.338 135.841L147.154 97.6569C144.03 94.5327 138.965 94.5327 135.841 97.6569L97.6569 135.841Z" fill="#078AFF"/>
</svg>
